<svg width="359" height="168" fill="none" xmlns="http://www.w3.org/2000/svg"><g clip-path="url(#clip0)"><path d="M453.07 134.4H163.204v48.16h243.15l46.716-48.16z" fill="#002046"/><path d="M318.368 18.48H170.714c-3.186 0-6.241 1.214-8.494 3.374s-3.518 5.09-3.518 8.145v70.971c0 3.055 1.265 5.985 3.518 8.145 2.253 2.161 5.308 3.374 8.494 3.374h52.821c2.161 0 4.234.823 5.762 2.289 1.529 1.465 2.387 3.453 2.387 5.526v3.673c0 .478-.098.952-.289 1.394a3.63 3.63 0 01-.824 1.181 3.803 3.803 0 01-1.233.789 3.922 3.922 0 01-1.454.276h-26.503c-3.135.001-6.141 1.196-8.357 3.321-2.217 2.126-3.462 5.008-3.463 8.014.005.28.124.546.332.742.208.196.488.306.779.306h107.79a1.13 1.13 0 00.774-.306c.102-.097.182-.213.237-.34a.997.997 0 00.082-.402c0-3.006-1.245-5.889-3.462-8.015-2.216-2.125-5.223-3.32-8.358-3.32h-26.507a3.876 3.876 0 01-2.679-1.068 3.566 3.566 0 01-1.11-2.572v-3.656c0-2.072.859-4.06 2.387-5.525 1.528-1.466 3.601-2.289 5.762-2.289h52.769c3.186 0 6.242-1.214 8.495-3.374 2.252-2.16 3.518-5.09 3.518-8.145V30.007c.002-3.055-1.261-5.985-3.512-8.147-2.251-2.161-5.304-3.377-8.49-3.38z" fill="#B2D3EA"/><path d="M312.878 28H176.756c-3.754 0-6.798 2.936-6.798 6.558v61.924c0 3.622 3.044 6.558 6.798 6.558h136.122c3.754 0 6.798-2.936 6.798-6.558V34.558c0-3.622-3.044-6.558-6.798-6.558z" fill="#398FFF"/><path d="M247.884 39.206s2.865-11.254-8.827-16.994-22.918-.231-22.918-.231-14.305 6.661-10.239 20.673l.056 3.96c0 .019-1.874.442-1.982.474a26.996 26.996 0 00-4.742 1.85c-4.473 2.245-8.169 5.793-10.014 10.362a18.172 18.172 0 00-1.109 4.355c-.192 1.391-.044 2.96-.587 4.27-.669 1.63-2.281 1.687-3.793 2.135a14.083 14.083 0 00-3.482 1.605 13.071 13.071 0 00-4.901 5.401c-1.109 2.43-1.109 5.305-.37 7.828a13.803 13.803 0 002.34 4.626 12.996 12.996 0 001.686 1.808c.369.316 2.044 1.825 2.587 1.611l43.163-17.438 22.718-35.334.414-.96z" fill="#00234B"/><path d="M213.212 45.711l-4.691-2.602c-1.704-.946-3.883-.385-4.867 1.253s-.4 3.731 1.304 4.677l4.691 2.602c1.704.946 3.883.385 4.867-1.253.984-1.637.4-3.731-1.304-4.677z" fill="#FF3E5C"/><path d="M178.403 107.52s-.952-34.87 38.333-45.36l25.198 1.529s29.647-1.804 40.594 39.446l-104.125 4.385z" fill="#fff"/><path d="M244.254 73.36h-27.579v29.68h27.579V73.36z" fill="#FFF04B"/><path d="M239.512 24.17c-.294-.142-.551-.149-.606.22-.315 2.227-1.835 9.338-8.216 10.112-7.586.916-7.266.76-8.691 5.344-.826 2.663-2.717 5.177-6.12 4.236-1.77-.49-3.444-1.133-5.306-1.105-3.48.054-5.187 3.011-4.405 6.079 1.916 7.598 8.745 9.103 11.26 9.21l-.973 3.955 4.288 11.7h13.981l3.635-8.338a.797.797 0 01.533-.454l.084-.021c.44-.118.871-.266 1.289-.444a11.169 11.169 0 005.533-5.031 13.553 13.553 0 001.288-3.466 15.2 15.2 0 00.375-2.527 2.484 2.484 0 01.084-.753c.096-.238.331-.355.529-.508a7.802 7.802 0 001.66-1.754c.888-1.253 1.52-2.95 1.182-4.48-.195-.867-.79-1.474-1.315-2.17a34.987 34.987 0 01-1.813-2.63 9.39 9.39 0 01-1.102-2.152c-.242-.792-.084-1.534-.154-2.333a18.597 18.597 0 00-.294-2.074c-.36-1.81-1-3.557-1.898-5.183a17.187 17.187 0 00-3.473-4.368 6.6 6.6 0 00-1.355-1.065z" fill="#FFC8D2"/><path d="M234.708 57.68a7.65 7.65 0 01-3.381-.745c-2.924-1.411-3.904-4.287-3.944-4.41a.342.342 0 01.025-.259.36.36 0 01.202-.172.378.378 0 01.268.024c.082.041.146.11.178.195 0 .028.954 2.738 3.593 4.012 1.787.864 3.944.892 6.415.084a.367.367 0 01.318-.035.368.368 0 01.224.22.34.34 0 01-.041.307.36.36 0 01-.275.158 11.603 11.603 0 01-3.582.62z" fill="#00234B"/><path d="M214.997 54.32a.396.396 0 01-.203-.058.365.365 0 01-.139-.152 3.104 3.104 0 01-.344-1.298c-.017-.45.065-.9.242-1.319.345-.7.92-1.279 1.64-1.653l-5.637-4.476a.336.336 0 01.018-.44.387.387 0 01.214-.117.403.403 0 01.246.031l6.074 4.81a.36.36 0 01.107.147.334.334 0 01.018.177.35.35 0 01-.08.159.378.378 0 01-.152.104 3.398 3.398 0 00-1.761 1.532 2.444 2.444 0 00.11 2.073.333.333 0 01-.003.262.368.368 0 01-.35.218z" fill="#002046"/><path d="M229.113 37.949s3.854-.221 1.818 1.758l-4.52 4.698-.168.398 1.7 1.677 6.743-7.613-2.63-1.347-2.943.429z" fill="#fff"/><path d="M234.736 46.518l-.548.131-1.078.7-1.764.251-2.079-.397-1.619-.9-.063-.335-1.238-1.304-.104-.131 4.662-5.147c1.979-2.036-1.768-1.821-1.768-1.821l2.594-.605 2.468.882 1.975 1.897.2 1.006-3.398 3.956c-1.997 2.057 1.76 1.817 1.76 1.817zm13.509-3.308l-.549.121-1.078.67-1.764.24-2.079-.374-1.619-.854-.063-.321-1.238-1.234-.104-.127 4.662-4.883c1.979-1.932-1.767-1.71-1.767-1.71l2.594-.578 2.468.836 1.975 1.804.2.95-3.398 3.753c-1.987 1.925 1.76 1.707 1.76 1.707z" fill="#fff"/><path d="M283.654 103.04H177.838v8.4h105.816v-8.4z" fill="#B2D3EA"/><path d="M231.031 47.6a6.39 6.39 0 01-3.285-.895c-.972-.584-1.73-1.415-2.178-2.387a4.832 4.832 0 01-.338-3.074c.228-1.032.79-1.98 1.617-2.725a6.135 6.135 0 013.026-1.457 6.521 6.521 0 013.415.303c1.08.402 2.003 1.084 2.653 1.959.649.875.996 1.904.996 2.956-.002 1.41-.625 2.761-1.732 3.758-1.107.998-2.608 1.56-4.174 1.562zm0-9.972a5.585 5.585 0 00-2.871.784 4.793 4.793 0 00-1.903 2.088 4.218 4.218 0 00-.294 2.687 4.524 4.524 0 001.414 2.382 5.366 5.366 0 002.646 1.273 5.7 5.7 0 002.985-.265 5.08 5.08 0 002.319-1.713 4.327 4.327 0 00.871-2.584 4.238 4.238 0 00-.388-1.786 4.642 4.642 0 00-1.118-1.516 5.242 5.242 0 00-1.679-1.013 5.673 5.673 0 00-1.982-.357v.02z" fill="#FF3E5C"/><path d="M236.163 42a.5.5 0 01-.237-.086.256.256 0 01-.112-.166.214.214 0 01.059-.178.422.422 0 01.206-.117l3.626-.542a.592.592 0 01.37-.004.434.434 0 01.149.08.27.27 0 01.081.117.204.204 0 01-.003.13.275.275 0 01-.086.115.456.456 0 01-.152.077.6.6 0 01-.187.024l-3.626.541-.088.009zm-19.113 2.221a.34.34 0 01-.259-.13.533.533 0 01-.006-.653.34.34 0 01.265-.138l8.818-.18c.1 0 .195.05.265.139.071.088.11.208.11.334a.537.537 0 01-.11.334.34.34 0 01-.265.138l-8.818.175v-.019z" fill="#FF3E5C"/><path d="M244.555 44.8a6.144 6.144 0 01-3.29-.936 5.678 5.678 0 01-2.185-2.51 5.326 5.326 0 01-.342-3.24 5.508 5.508 0 011.616-2.871 6.018 6.018 0 013.028-1.535 6.213 6.213 0 013.418.32 5.854 5.854 0 012.654 2.067c.648.923.994 2.007.991 3.116-.005 1.48-.627 2.897-1.73 3.944a6.088 6.088 0 01-4.16 1.645zm0-10.496a5.372 5.372 0 00-2.871.825 4.96 4.96 0 00-1.903 2.197 4.655 4.655 0 00-.295 2.83c.2.95.692 1.822 1.415 2.506a5.259 5.259 0 002.645 1.34 5.435 5.435 0 002.986-.278 5.12 5.12 0 002.319-1.804 4.714 4.714 0 00.871-2.72 4.773 4.773 0 00-1.515-3.461 5.318 5.318 0 00-3.652-1.435z" fill="#FF3E5C"/><path d="M248.194 24.64c.932 0 1.688-.752 1.688-1.68 0-.928-.756-1.68-1.688-1.68-.933 0-1.689.752-1.689 1.68 0 .928.756 1.68 1.689 1.68zm25.328 59.144L283.6 64.538a5.179 5.179 0 00.595-2.431c0-2.295-.111-7.21-.74-11.342-.347-2.31-.661-6 1.53-7.616 2.125-1.57 4.716-1.003 6.604.648a12.369 12.369 0 013.06 5.128.292.292 0 00.218.204.304.304 0 00.158-.008.288.288 0 00.13-.085c2.879-3.242 6.261-6.431 10.089-8.563 2.923-1.63 7.576-2.33 8.274 1.883a.703.703 0 00.227.404.749.749 0 00.435.187c1.223.11 3.895.74 3.777 4.192a.693.693 0 00.129.411.733.733 0 00.351.265c1.039.384 3.304 1.527 3.385 4.185.005.158.065.31.169.431a.744.744 0 00.408.242c1.722.356 3.248 1.626 3.444 3.377.222 1.99-1.146 3.32-2.402 4.715-1.881 2.086-6.582 4.331-13.533 16.577 0 0-8.895 15.961-10.27 25.698h-25.754l-.362-19.256z" fill="#fff"/><path d="M323.435 60.92c1.259-1.406 2.631-2.746 2.408-4.75-.196-1.763-1.727-3.04-3.454-3.401a.742.742 0 01-.408-.243.702.702 0 01-.17-.435c-.081-2.677-2.353-3.828-3.394-4.215a.736.736 0 01-.352-.266.696.696 0 01-.13-.415c.119-3.476-2.56-4.11-3.787-4.222a.753.753 0 01-.436-.188.71.71 0 01-.227-.407c-.701-4.243-5.366-3.537-8.298-1.896-3.839 2.15-7.229 5.377-10.116 8.624a.296.296 0 01-.289.094.29.29 0 01-.219-.205 12.471 12.471 0 00-3.068-5.165c-1.894-1.663-4.492-2.233-6.622-.652-2.198 1.627-1.883 5.344-1.535 7.67.623 4.16.742 9.11.742 11.422a5.19 5.19 0 01-.193 1.434l25.862 14.136.122-.222c6.964-12.347 11.677-14.598 13.564-16.699z" fill="#FFC8D2"/><path d="M276.779 93.22a.344.344 0 00.346.3h.038a.346.346 0 00.298-.37c-.468-4.363-2.386-9.378-2.971-10.83l-.405.8c.72 1.89 2.285 6.271 2.694 10.1z" fill="#D7EEFF"/><path d="M278.383 36.876l-4.149 1.487a1.5 1.5 0 00-.657.464 1.47 1.47 0 00-.319.733l-1.19 8.956a.231.231 0 01-.078.145.238.238 0 01-.312 0 .231.231 0 01-.078-.145l-1.194-8.956a1.476 1.476 0 00-.973-1.197l-4.152-1.487a.305.305 0 01-.201-.284.3.3 0 01.201-.284l4.152-1.568a1.484 1.484 0 00.944-1.15l1.23-7.638a.236.236 0 01.464 0l1.224 7.639a1.48 1.48 0 00.947 1.15l4.148 1.567a.3.3 0 01-.007.568zm-13.464 15.419l-1.627.585a.993.993 0 00-.642.789l-.514 3.88a.155.155 0 01-.255.094.153.153 0 01-.053-.094l-.515-3.88a.973.973 0 00-.21-.482.998.998 0 00-.431-.307l-1.627-.585a.236.236 0 010-.445l1.638-.62a.984.984 0 00.62-.76l.529-3.3a.151.151 0 01.052-.093.156.156 0 01.256.094l.529 3.3a.97.97 0 00.619.76l1.638.62a.234.234 0 01.112.088.23.23 0 01.041.137.228.228 0 01-.045.135.24.24 0 01-.115.084zm-71.506-8.412l-1.773.584c-.186.06-.349.166-.473.305a.934.934 0 00-.228.483l-.566 3.875c0 .04-.018.078-.049.106a.174.174 0 01-.117.044.175.175 0 01-.118-.044.145.145 0 01-.049-.106l-.566-3.876a.92.92 0 00-.228-.483 1.078 1.078 0 00-.473-.304l-1.758-.584a.261.261 0 01-.124-.087.22.22 0 010-.27.261.261 0 01.124-.087l1.786-.62c.177-.062.333-.165.452-.298a.95.95 0 00.229-.461l.578-3.299a.148.148 0 01.06-.087.182.182 0 01.213 0c.03.022.051.053.06.087l.578 3.299c.029.17.108.329.228.462.119.133.275.236.453.297l1.785.62a.25.25 0 01.12.092.22.22 0 01.041.137.226.226 0 01-.055.134.262.262 0 01-.13.08z" fill="#fff"/><path d="M244.407 103.04l4.612-13.246a6.272 6.272 0 00.237-3.25 6.469 6.469 0 00-1.435-2.964l-2.22-2.611a2.596 2.596 0 01-.629-1.619 2.578 2.578 0 01.546-1.645l3.353-4.336a4.753 4.753 0 00.401-5.262l-2.455-4.382a24.742 24.742 0 00-4.747-.31l-2.21-.135c-3.655 4.546-12.953 19.075-2.889 39.76h7.436z" fill="#EAEBEC"/><path d="M244.254 61.6s-2.239 2.837-6.04 3.36l-.151-2.932 6.191-.428z" fill="#FEC8D2"/><path d="M312.708 62.16a.373.373 0 01-.228-.083.361.361 0 01-.044-.494c3.002-3.568 8.289-8.25 8.34-8.298a.371.371 0 01.504.03.358.358 0 01-.03.493c-.051.047-5.298 4.697-8.266 8.225a.372.372 0 01-.276.127zm-3.937-5.04a.373.373 0 01-.217-.072.363.363 0 01-.066-.494c2.365-3.053 8.109-8.1 8.351-8.31a.372.372 0 01.5.028c.06.071.09.162.085.255a.365.365 0 01-.115.243c-.059.05-5.931 5.213-8.255 8.212a.37.37 0 01-.283.138zm-4.481-5.04a.408.408 0 01-.23-.072.359.359 0 01-.141-.234.341.341 0 01.071-.26c2.512-3.05 8.613-8.095 8.87-8.309a.413.413 0 01.535.029.351.351 0 01.089.255.355.355 0 01-.124.242c-.063.051-6.3 5.213-8.77 8.211a.385.385 0 01-.133.1.415.415 0 01-.167.038z" fill="#00234B"/><path d="M212.027 77.88c.368.474.56 1.048.545 1.634a2.567 2.567 0 01-.628 1.607l-2.221 2.594a6.394 6.394 0 00-1.434 2.943 6.178 6.178 0 00.237 3.227l4.611 13.155h7.436c11.708-23.858-2.745-39.479-4.112-40.88a66.985 66.985 0 00-5.696 1.77l-2.481 4.418a4.68 4.68 0 00-.602 2.667 4.748 4.748 0 001.003 2.56l3.342 4.305z" fill="#EAEBEC"/><path d="M-180.132 57.068c0 1.203 18.512 2.192 19.983 2.227 15.578.392 32.046-.868 46.423-7.09 18.453-7.988 31.1-29.94 25.323-49.255-1.146-3.825-2.676-7.593-1.685-11.656 1.955-8.051 12.329-12.018 19.491-14.278 29.075-9.2 49.154-10.986 72.264-45.896h-181.799V57.068z" fill="#5FA5FF"/><path d="M306.552 145.6h-82.944c-1.653 0-2.993 1.289-2.993 2.88v25.6c0 1.591 1.34 2.88 2.993 2.88h82.944c1.653 0 2.993-1.289 2.993-2.88v-25.6c0-1.591-1.34-2.88-2.993-2.88z" fill="#B2D3EA"/><path d="M236.51 161.84h-11.528c-.236 0-.427.178-.427.397v4.246c0 .219.191.397.427.397h11.528c.236 0 .427-.178.427-.397v-4.246c0-.219-.191-.397-.427-.397zm6.782 0h-4.267c-.221 0-.4.178-.4.397v4.246c0 .219.179.397.4.397h4.267c.22 0 .399-.178.399-.397v-4.246a.398.398 0 00-.399-.397zm6.754 0h-4.267a.398.398 0 00-.399.397v4.246c0 .219.179.397.399.397h4.267a.398.398 0 00.399-.397v-4.246a.398.398 0 00-.399-.397zm7.273 0h-4.742c-.245 0-.443.178-.443.397v4.246c0 .219.198.397.443.397h4.742c.245 0 .443-.178.443-.397v-4.246c0-.219-.198-.397-.443-.397zm6.754 0h-4.741c-.245 0-.444.178-.444.397v4.246c0 .219.199.397.444.397h4.741c.245 0 .444-.178.444-.397v-4.246c0-.219-.199-.397-.444-.397zm6.799 0h-4.268a.398.398 0 00-.399.397v4.246c0 .219.179.397.399.397h4.268c.22 0 .399-.178.399-.397v-4.246a.398.398 0 00-.399-.397zm6.754 0h-4.267c-.221 0-.4.178-.4.397v4.246c0 .219.179.397.4.397h4.267c.22 0 .399-.178.399-.397v-4.246a.398.398 0 00-.399-.397zm6.754 0h-4.267c-.221 0-.4.178-.4.397v4.246c0 .219.179.397.4.397h4.267c.22 0 .399-.178.399-.397v-4.246a.398.398 0 00-.399-.397zm7.273 0h-4.742c-.245 0-.443.178-.443.397v4.246c0 .219.198.397.443.397h4.742c.245 0 .443-.178.443-.397v-4.246c0-.219-.198-.397-.443-.397zm13.526 0h-11.532c-.235 0-.425.178-.425.397v4.246c0 .219.19.397.425.397h11.532c.235 0 .425-.178.425-.397v-4.246c0-.219-.19-.397-.425-.397zm-65.264-6.16h-4.267a.398.398 0 00-.399.397v4.246c0 .219.178.397.399.397h4.267c.22 0 .399-.178.399-.397v-4.246a.398.398 0 00-.399-.397zm6.754 0h-4.267a.398.398 0 00-.399.397v4.246c0 .219.179.397.399.397h4.267c.221 0 .4-.178.4-.397v-4.246a.399.399 0 00-.4-.397zm6.754 0h-4.267a.398.398 0 00-.399.397v4.246c0 .219.179.397.399.397h4.267a.398.398 0 00.399-.397v-4.246a.398.398 0 00-.399-.397zm7.273 0h-4.741c-.245 0-.444.178-.444.397v4.246c0 .219.199.397.444.397h4.741c.245 0 .444-.178.444-.397v-4.246c0-.219-.199-.397-.444-.397zm6.799 0h-4.268a.398.398 0 00-.399.397v4.246c0 .219.179.397.399.397h4.268c.22 0 .399-.178.399-.397v-4.246a.398.398 0 00-.399-.397zm6.754 0h-4.268a.398.398 0 00-.399.397v4.246c0 .219.179.397.399.397h4.268c.22 0 .399-.178.399-.397v-4.246a.398.398 0 00-.399-.397zm6.754 0h-4.267c-.221 0-.4.178-.4.397v4.246c0 .219.179.397.4.397h4.267c.22 0 .399-.178.399-.397v-4.246a.398.398 0 00-.399-.397zm6.754 0h-4.267a.398.398 0 00-.399.397v4.246c0 .219.179.397.399.397h4.267a.398.398 0 00.399-.397v-4.246a.398.398 0 00-.399-.397zm7.317 0h-4.267a.398.398 0 00-.399.397v4.246c0 .219.178.397.399.397h4.267a.398.398 0 00.399-.397v-4.246a.398.398 0 00-.399-.397zm-62.492 0h-7.612a.407.407 0 00-.415.397v4.246c0 .219.186.397.415.397h7.612a.407.407 0 00.415-.397v-4.246a.407.407 0 00-.415-.397zm72.607 0h-7.612a.407.407 0 00-.415.397v4.246c0 .219.186.397.415.397h7.612a.407.407 0 00.415-.397v-4.246a.407.407 0 00-.415-.397zm-68.651-6.72h-4.267c-.221 0-.399.198-.399.441v4.718c0 .243.178.441.399.441h4.267c.22 0 .399-.198.399-.441v-4.718c0-.243-.179-.441-.399-.441zm-6.798 0h-4.742a.442.442 0 00-.443.441v4.718c0 .243.198.441.443.441h4.742a.442.442 0 00.443-.441v-4.718a.442.442 0 00-.443-.441zm20.825 0h-4.742a.442.442 0 00-.443.441v4.718c0 .243.198.441.443.441h4.742a.442.442 0 00.443-.441v-4.718a.442.442 0 00-.443-.441zm-7.273 0h-4.267c-.221 0-.4.198-.4.441v4.718c0 .243.179.441.4.441h4.267c.22 0 .399-.198.399-.441v-4.718c0-.243-.179-.441-.399-.441zm20.826 0h-4.268c-.22 0-.399.198-.399.441v4.718c0 .243.179.441.399.441h4.268c.22 0 .399-.198.399-.441v-4.718c0-.243-.179-.441-.399-.441zm-6.799 0h-4.742a.442.442 0 00-.443.441v4.718c0 .243.198.441.443.441h4.742a.442.442 0 00.443-.441v-4.718a.442.442 0 00-.443-.441zm20.825 0h-4.741a.443.443 0 00-.444.441v4.718c0 .243.199.441.444.441h4.741a.443.443 0 00.444-.441v-4.718a.443.443 0 00-.444-.441zm-7.272 0h-4.268c-.22 0-.399.198-.399.441v4.718c0 .243.179.441.399.441h4.268c.22 0 .399-.198.399-.441v-4.718c0-.243-.179-.441-.399-.441zm20.262 0h-4.267c-.221 0-.399.198-.399.441v4.718c0 .243.178.441.399.441h4.267c.221 0 .399-.198.399-.441v-4.718c0-.243-.178-.441-.399-.441zm-6.754 0h-4.267c-.221 0-.4.198-.4.441v4.718c0 .243.179.441.4.441h4.267c.22 0 .399-.198.399-.441v-4.718c0-.243-.179-.441-.399-.441zm20.825 0h-4.267c-.22 0-.399.198-.399.441v4.718c0 .243.179.441.399.441h4.267c.221 0 .4-.198.4-.441v-4.718c0-.243-.179-.441-.4-.441zm-6.798 0h-4.742a.442.442 0 00-.443.441v4.718c0 .243.198.441.443.441h4.742a.442.442 0 00.443-.441v-4.718a.442.442 0 00-.443-.441z" fill="#fff"/><path d="M154.521 115.906s-14.911.934-15.897-12.714a5.625 5.625 0 00-1.737-3.714c-3.436-3.228-10.341-11.827-3.432-24.171a.792.792 0 00.013-.759.817.817 0 00-.263-.296.851.851 0 00-.376-.142c-2.604-.328-8.226-1.85-7.31-8.82a5.179 5.179 0 00-.125-1.964c-.736-2.88-1.898-11.083 8.175-11.703a5.806 5.806 0 001.931-.452c2.815-1.208 11.527-4.052 14.05 5.74a.81.81 0 00.178.333.84.84 0 00.693.281.858.858 0 00.369-.11c3.245-1.847 13.866-7.021 23.369-1.971a6.106 6.106 0 002.152.684c3.12.356 11.747 2.138 13.245 10.573.161.963.573 1.87 1.195 2.637 1.641 1.978 4.544 6.692 2.944 13.898l-39.174 32.67z" fill="#260800"/><path d="M180.023 61.73c1.983 2.031 7.674 8.308 9.141 14.924a9.427 9.427 0 002.703 3.359 10.046 10.046 0 003.983 1.882s6.214 1.7 4.041 8.421c0 0-.635 2.61-3.844 5.09a1.272 1.272 0 00-.364.438c-.086.17-.13.356-.13.544-.026 2.864-.959 15.072-14.769 19.038v2.734h-27.576v-11.08s-9.011 1.035-13.591-10.265c-4.371-10.773 4.112-19.532 14.067-12.963a1.562 1.562 0 001.218.215c.207-.05.401-.14.568-.268a1.44 1.44 0 00.398-.47 13.046 13.046 0 012.953-3.814c1.697-1.473 3.714-1.812 5.85-2.32 3.566-.848 6.407-3.303 8.822-5.822l.416-.441c2.277-2.438 4.713-5.5 5.33-8.795l.033-.191a.41.41 0 01.104-.205.458.458 0 01.647-.01z" fill="#FF7300"/><path d="M149.977 110.88c2.332 0 4.222-1.88 4.222-4.2 0-2.32-1.89-4.2-4.222-4.2-2.331 0-4.221 1.88-4.221 4.2 0 2.32 1.89 4.2 4.221 4.2z" fill="#FFC8D2"/><path d="M233.786 198.517l-83.277-7.574-58.223-22.438s13.639-56.749 72.943-52.964c59.489 3.799 73.979 57.687 73.379 83.819" fill="#FFF04B"/><path d="M177.137 104.159a10.199 10.199 0 01-4.602-1.042c-3.957-1.972-5.313-5.991-5.368-6.173a.475.475 0 01.31-.6.484.484 0 01.606.306c0 .04 1.297 3.824 4.895 5.607 2.429 1.205 5.368 1.245 8.728.119a.487.487 0 01.61.3.475.475 0 01-.303.605c-1.566.553-3.213.85-4.876.878zm-27.003-3.919a.496.496 0 01-.268-.078.463.463 0 01-.178-.207c-.565-1.273-.612-2.462-.14-3.517a5.05 5.05 0 012.169-2.223l-7.437-6.007a.48.48 0 01-.14-.14.447.447 0 01.043-.545.491.491 0 01.358-.163.508.508 0 01.366.144l7.994 6.461c.064.052.113.12.142.195a.446.446 0 01-.08.454.492.492 0 01-.203.14s-1.693.636-2.32 2.057a3.34 3.34 0 00.14 2.785.434.434 0 01.005.354.482.482 0 01-.263.25.432.432 0 01-.188.04zm-75.86 95.275l2.718-28.296c1.362-14.178 8.179-27.354 19.115-36.948 10.936-9.593 25.202-14.911 40.002-14.911 14.761-.001 28.993 5.289 39.919 14.837 10.926 9.548 17.763 22.669 19.176 36.804l3.46 34.599" fill="#00234B"/><path d="M184.592 67.2l4.301 6.78a31.247 31.247 0 006.48 7.32l1.602 1.228-11.695.352-.688-15.68z" fill="#FF7300"/></g><defs><clipPath id="clip0"><path fill="#fff" d="M-67 0h426v168H-67z"/></clipPath></defs></svg>